<svg xmlns="http://www.w3.org/2000/svg" width="900" height="600" viewBox="0 0 900 600">
  <defs>
    <style>
      .bg { fill: #f7fafc; }
      .ink { fill: none; stroke: #0f3557; stroke-width: 8; stroke-linecap: round; stroke-linejoin: round; }
      .fill1 { fill: #1e5fa3; }
      .fill2 { fill: #f0b429; }
      .panel { fill: white; stroke: rgba(15,53,87,.15); stroke-width: 2; }
      .txt { fill: #0f3557; font: 600 28px system-ui, -apple-system, Segoe UI, Roboto, Helvetica, Arial; }
    </style>
  </defs>
  <rect class="bg" x="0" y="0" width="900" height="600" rx="24" ry="24"/>
  <g transform="translate(40,40)">
    <rect class="panel" x="0" y="0" width="820" height="460" rx="24" ry="24"/>
    <g transform="translate(0,0)">
      
    <g transform="translate(80,50) scale(1)">
      <path class="fill1" d="M120,20 L170,50 L150,90 L140,80 L140,200 L60,200 L60,80 L50,90 L30,50 L80,20 L100,35 Z" opacity="0.15"/>
      <path class="ink" d="M120,20 L170,50 L150,90 L140,80 L140,200 L60,200 L60,80 L50,90 L30,50 L80,20 L100,35 Z"/>
      <circle class="fill2" cx="100" cy="110" r="14"/>
    </g>
    
    </g>
  </g>
  <text class="txt" x="450.0" y="564" text-anchor="middle">Camiseta Classic</text>
</svg>