<svg xmlns="http://www.w3.org/2000/svg" width="900" height="600" viewBox="0 0 900 600">
  <defs>
    <style>
      .bg { fill: #f7fafc; }
      .ink { fill: none; stroke: #0f3557; stroke-width: 8; stroke-linecap: round; stroke-linejoin: round; }
      .fill1 { fill: #1e5fa3; }
      .fill2 { fill: #f0b429; }
      .panel { fill: white; stroke: rgba(15,53,87,.15); stroke-width: 2; }
      .txt { fill: #0f3557; font: 600 28px system-ui, -apple-system, Segoe UI, Roboto, Helvetica, Arial; }
    </style>
  </defs>
  <rect class="bg" x="0" y="0" width="900" height="600" rx="24" ry="24"/>
  <g transform="translate(40,40)">
    <rect class="panel" x="0" y="0" width="820" height="460" rx="24" ry="24"/>
    <g transform="translate(0,0)">
      
    <g transform="translate(70,70)">
      <path class="fill1" d="M60,120 C60,70 100,40 140,40 C180,40 210,70 210,120 Z" opacity="0.15"/>
      <path class="ink" d="M60,120 C60,70 100,40 140,40 C180,40 210,70 210,120 Z"/>
      <path class="ink" d="M210,120 C240,120 260,130 270,150 C240,150 220,145 210,140"/>
      <circle class="fill2" cx="140" cy="85" r="10"/>
    </g>
    
    </g>
  </g>
  <text class="txt" x="450.0" y="564" text-anchor="middle">Gorra Snapback</text>
</svg>